<svg xmlns="http://www.w3.org/2000/svg" width="1024" height="1024" viewBox="0 0 1024 1024">
  <defs>
    <radialGradient id="bgGlow" cx="50%" cy="50%" r="56%">
      <stop offset="0%" stop-color="#30343c"/>
      <stop offset="58%" stop-color="#1f232b"/>
      <stop offset="100%" stop-color="#12151c"/>
    </radialGradient>
    <linearGradient id="ringGrad" x1="0%" y1="0%" x2="100%" y2="100%">
      <stop offset="0%" stop-color="#d2d8e2"/>
      <stop offset="52%" stop-color="#9ca5b4"/>
      <stop offset="100%" stop-color="#717b8e"/>
    </linearGradient>
    <radialGradient id="coreGrad" cx="50%" cy="45%" r="62%">
      <stop offset="0%" stop-color="#edf1f8"/>
      <stop offset="44%" stop-color="#bec7d5"/>
      <stop offset="100%" stop-color="#78829a"/>
    </radialGradient>
  </defs>

  <circle cx="512" cy="512" r="496" fill="url(#bgGlow)"/>
  <circle cx="512" cy="512" r="470" fill="none" stroke="#edf2f8" stroke-opacity="0.18" stroke-width="4"/>
  <circle cx="512" cy="512" r="420" fill="none" stroke="url(#ringGrad)" stroke-width="20"/>
  <circle cx="512" cy="512" r="392" fill="none" stroke="#ced5e2" stroke-opacity="0.34" stroke-width="4"/>
  <circle cx="512" cy="512" r="322" fill="none" stroke="#ced5e2" stroke-opacity="0.24" stroke-width="2.5" stroke-dasharray="8 14"/>
  <circle cx="512" cy="512" r="248" fill="none" stroke="#ced5e2" stroke-opacity="0.2" stroke-width="2" stroke-dasharray="6 13"/>

  <circle cx="512" cy="512" r="196" fill="url(#coreGrad)" fill-opacity="0.24"/>
  <circle cx="512" cy="512" r="132" fill="#eaf0f8" fill-opacity="0.08"/>

  <circle cx="512" cy="512" r="204" fill="#1b212c" fill-opacity="0.62"/>
  <circle cx="512" cy="512" r="204" fill="none" stroke="#f3f6fb" stroke-opacity="0.72" stroke-width="14"/>
  <circle cx="512" cy="512" r="204" fill="none" stroke="#9ba5b8" stroke-width="9"/>

  <g fill="none" stroke-linecap="round" stroke-linejoin="round">
    <path d="M512 300v188" stroke="#3f4758" stroke-width="68"/>
    <path d="M512 312v164" stroke="#f3f6fb" stroke-width="44"/>
    <path d="M512 320v148" stroke="#a9b3c5" stroke-width="18"/>
  </g>

  <path d="M674 418A202 202 0 1 1 350 418" fill="none" stroke="#3f4758" stroke-width="92" stroke-linecap="round"/>
  <path d="M674 420A202 202 0 1 1 350 420" fill="none" stroke="#f3f6fb" stroke-width="60" stroke-linecap="round"/>
  <path d="M674 420A202 202 0 1 1 350 420" fill="none" stroke="#9ba5b8" stroke-width="24" stroke-linecap="round"/>

</svg>
