<svg xmlns="http://www.w3.org/2000/svg" width="1024" height="1024" viewBox="0 0 1024 1024">
  <defs>
    <radialGradient id="bgGlow" cx="50%" cy="50%" r="56%">
      <stop offset="0%" stop-color="#3f2d10"/>
      <stop offset="58%" stop-color="#281c0b"/>
      <stop offset="100%" stop-color="#141008"/>
    </radialGradient>
    <linearGradient id="ringGrad" x1="0%" y1="0%" x2="100%" y2="100%">
      <stop offset="0%" stop-color="#fff1a8"/>
      <stop offset="52%" stop-color="#d9aa3d"/>
      <stop offset="100%" stop-color="#8d6118"/>
    </linearGradient>
    <radialGradient id="coreGrad" cx="50%" cy="45%" r="62%">
      <stop offset="0%" stop-color="#fff7c8"/>
      <stop offset="44%" stop-color="#e9bd4c"/>
      <stop offset="100%" stop-color="#9d691d"/>
    </radialGradient>
  </defs>

  <circle cx="512" cy="512" r="496" fill="url(#bgGlow)"/>
  <circle cx="512" cy="512" r="470" fill="none" stroke="#fff6d2" stroke-opacity="0.18" stroke-width="4"/>
  <circle cx="512" cy="512" r="420" fill="none" stroke="url(#ringGrad)" stroke-width="20"/>
  <circle cx="512" cy="512" r="392" fill="none" stroke="#f7dc85" stroke-opacity="0.36" stroke-width="4"/>
  <circle cx="512" cy="512" r="322" fill="none" stroke="#f7dc85" stroke-opacity="0.26" stroke-width="2.5" stroke-dasharray="8 14"/>
  <circle cx="512" cy="512" r="248" fill="none" stroke="#f7dc85" stroke-opacity="0.2" stroke-width="2" stroke-dasharray="6 13"/>

  <circle cx="512" cy="512" r="196" fill="url(#coreGrad)" fill-opacity="0.26"/>
  <circle cx="512" cy="512" r="132" fill="#fff6d2" fill-opacity="0.1"/>

  <circle cx="512" cy="512" r="204" fill="#2c210f" fill-opacity="0.62"/>
  <circle cx="512" cy="512" r="204" fill="none" stroke="#fff6d2" stroke-opacity="0.75" stroke-width="14"/>
  <circle cx="512" cy="512" r="204" fill="none" stroke="#d9aa3d" stroke-width="9"/>

  <g fill="none" stroke-linejoin="round">
    <path d="M512 292 568 438 724 446 602 544 642 696 512 612 382 696 422 544 300 446 456 438Z" fill="#6d4917" stroke="#6d4917" stroke-width="48"/>
    <path d="M512 318 560 444 694 450 590 534 624 666 512 594 400 666 434 534 330 450 464 444Z" fill="#fff6d2" stroke="#fff6d2" stroke-width="26"/>
    <path d="M512 346 552 452 664 458 578 526 606 636 512 574 418 636 446 526 360 458 472 452Z" fill="#d9aa3d" stroke="#d9aa3d" stroke-width="12"/>
  </g>
</svg>
