<svg xmlns="http://www.w3.org/2000/svg" width="1024" height="1024" viewBox="0 0 1024 1024">
  <defs>
    <radialGradient id="bgGlow" cx="50%" cy="50%" r="56%">
      <stop offset="0%" stop-color="#14371f"/>
      <stop offset="58%" stop-color="#102618"/>
      <stop offset="100%" stop-color="#0a0c12"/>
    </radialGradient>
    <linearGradient id="ringGrad" x1="0%" y1="0%" x2="100%" y2="100%">
      <stop offset="0%" stop-color="#c6f6d2"/>
      <stop offset="52%" stop-color="#49be6a"/>
      <stop offset="100%" stop-color="#2f9e53"/>
    </linearGradient>
    <radialGradient id="coreGrad" cx="50%" cy="45%" r="62%">
      <stop offset="0%" stop-color="#e5ffec"/>
      <stop offset="44%" stop-color="#aae8bb"/>
      <stop offset="100%" stop-color="#49be6a"/>
    </radialGradient>
  </defs>

  <circle cx="512" cy="512" r="496" fill="url(#bgGlow)"/>
  <circle cx="512" cy="512" r="470" fill="none" stroke="#e5ffec" stroke-opacity="0.18" stroke-width="4"/>
  <circle cx="512" cy="512" r="420" fill="none" stroke="url(#ringGrad)" stroke-width="20"/>
  <circle cx="512" cy="512" r="392" fill="none" stroke="#aae8bb" stroke-opacity="0.36" stroke-width="4"/>
  <circle cx="512" cy="512" r="322" fill="none" stroke="#aae8bb" stroke-opacity="0.26" stroke-width="2.5" stroke-dasharray="8 14"/>
  <circle cx="512" cy="512" r="248" fill="none" stroke="#aae8bb" stroke-opacity="0.2" stroke-width="2" stroke-dasharray="6 13"/>

  <circle cx="512" cy="512" r="196" fill="url(#coreGrad)" fill-opacity="0.28"/>
  <circle cx="512" cy="512" r="132" fill="#e5ffec" fill-opacity="0.1"/>

  <rect x="410" y="278" width="78" height="514" rx="39" fill="#1b6e38"/>
  <rect x="425" y="298" width="48" height="474" rx="24" fill="#f5f1e3"/>
  <rect x="440" y="314" width="18" height="442" rx="9" fill="#49be6a"/>

  <circle cx="449" cy="273" r="54" fill="#1b6e38"/>
  <circle cx="449" cy="273" r="35" fill="#f5f1e3"/>
  <circle cx="449" cy="273" r="13" fill="#49be6a"/>

  <path d="M470 334 724 423 470 512Z" fill="#1b6e38"/>
  <path d="M488 356 682 423 488 490Z" fill="#f5f1e3"/>
  <path d="M504 374 644 423 504 472Z" fill="#49be6a"/>

  <rect x="526" y="405" width="116" height="14" rx="7" fill="#c6f6d2" opacity="0.86"/>
  <rect x="526" y="445" width="82" height="12" rx="6" fill="#c6f6d2" opacity="0.62"/>
</svg>
