<svg xmlns="http://www.w3.org/2000/svg" width="1024" height="1024" viewBox="0 0 1024 1024">
  <defs>
    <radialGradient id="bgGlow" cx="50%" cy="50%" r="56%">
      <stop offset="0%" stop-color="#102746"/>
      <stop offset="58%" stop-color="#0b1831"/>
      <stop offset="100%" stop-color="#070d18"/>
    </radialGradient>
    <linearGradient id="ringGrad" x1="0%" y1="0%" x2="100%" y2="100%">
      <stop offset="0%" stop-color="#9ad7ff"/>
      <stop offset="52%" stop-color="#43a9ff"/>
      <stop offset="100%" stop-color="#1e6fd2"/>
    </linearGradient>
    <radialGradient id="coreGrad" cx="50%" cy="45%" r="62%">
      <stop offset="0%" stop-color="#d9f2ff"/>
      <stop offset="44%" stop-color="#75c4ff"/>
      <stop offset="100%" stop-color="#2a75d9"/>
    </radialGradient>
  </defs>

  <circle cx="512" cy="512" r="496" fill="url(#bgGlow)"/>
  <circle cx="512" cy="512" r="470" fill="none" stroke="#e2f4ff" stroke-opacity="0.18" stroke-width="4"/>
  <circle cx="512" cy="512" r="420" fill="none" stroke="url(#ringGrad)" stroke-width="20"/>
  <circle cx="512" cy="512" r="392" fill="none" stroke="#a8ddff" stroke-opacity="0.36" stroke-width="4"/>
  <circle cx="512" cy="512" r="322" fill="none" stroke="#a8ddff" stroke-opacity="0.26" stroke-width="2.5" stroke-dasharray="8 14"/>
  <circle cx="512" cy="512" r="248" fill="none" stroke="#a8ddff" stroke-opacity="0.2" stroke-width="2" stroke-dasharray="6 13"/>

  <circle cx="512" cy="512" r="196" fill="url(#coreGrad)" fill-opacity="0.26"/>
  <circle cx="512" cy="512" r="132" fill="#dff3ff" fill-opacity="0.1"/>

  <circle cx="512" cy="512" r="204" fill="#0f2038" fill-opacity="0.62"/>
  <circle cx="512" cy="512" r="204" fill="none" stroke="#eaf8ff" stroke-opacity="0.75" stroke-width="14"/>
  <circle cx="512" cy="512" r="204" fill="none" stroke="#64baff" stroke-width="9"/>

  <g fill="none" stroke-linecap="round" stroke-linejoin="round" transform="translate(-18 -6) scale(1.08)">
    <path d="M438 284V734" stroke="#183d70" stroke-width="72"/>
    <path d="M438 296V722" stroke="#eaf8ff" stroke-width="42"/>
    <path d="M438 306V712" stroke="#64baff" stroke-width="16"/>

    <circle cx="438" cy="258" r="44" fill="#183d70" stroke="#183d70" stroke-width="16"/>
    <circle cx="438" cy="258" r="29" fill="#eaf8ff" stroke="#eaf8ff" stroke-width="12"/>
    <circle cx="438" cy="258" r="12" fill="#64baff"/>

    <path d="M470 328L692 410L470 492Z" fill="#183d70" stroke="#183d70" stroke-width="20"/>
    <path d="M478 340L664 410L478 480Z" fill="#f3fbff" stroke="#f3fbff" stroke-width="14"/>
    <path d="M486 350L636 410L486 470Z" fill="#64baff" stroke="#64baff" stroke-width="10"/>

    <path d="M504 392L612 392" stroke="#d7f0ff" stroke-opacity="0.88" stroke-width="12"/>
    <path d="M504 430L584 430" stroke="#d7f0ff" stroke-opacity="0.62" stroke-width="10"/>
  </g>
</svg>
