<svg xmlns="http://www.w3.org/2000/svg" width="1024" height="1024" viewBox="0 0 1024 1024">
  <defs>
    <radialGradient id="bgGlow" cx="50%" cy="50%" r="56%">
      <stop offset="0%" stop-color="#3b1f12"/>
      <stop offset="58%" stop-color="#24140d"/>
      <stop offset="100%" stop-color="#140d0a"/>
    </radialGradient>
    <linearGradient id="ringGrad" x1="0%" y1="0%" x2="100%" y2="100%">
      <stop offset="0%" stop-color="#ffd6a4"/>
      <stop offset="52%" stop-color="#ff9b52"/>
      <stop offset="100%" stop-color="#d15c26"/>
    </linearGradient>
    <radialGradient id="coreGrad" cx="50%" cy="45%" r="62%">
      <stop offset="0%" stop-color="#ffe5c7"/>
      <stop offset="44%" stop-color="#ffb46a"/>
      <stop offset="100%" stop-color="#cc5b2d"/>
    </radialGradient>
  </defs>

  <circle cx="512" cy="512" r="496" fill="url(#bgGlow)"/>
  <circle cx="512" cy="512" r="470" fill="none" stroke="#ffe9cc" stroke-opacity="0.18" stroke-width="4"/>
  <circle cx="512" cy="512" r="420" fill="none" stroke="url(#ringGrad)" stroke-width="20"/>
  <circle cx="512" cy="512" r="392" fill="none" stroke="#ffd4a8" stroke-opacity="0.36" stroke-width="4"/>
  <circle cx="512" cy="512" r="322" fill="none" stroke="#ffd4a8" stroke-opacity="0.26" stroke-width="2.5" stroke-dasharray="8 14"/>
  <circle cx="512" cy="512" r="248" fill="none" stroke="#ffd4a8" stroke-opacity="0.2" stroke-width="2" stroke-dasharray="6 13"/>

  <circle cx="512" cy="512" r="204" fill="url(#coreGrad)" fill-opacity="0.26"/>
  <circle cx="512" cy="512" r="152" fill="#2a170f" fill-opacity="0.66"/>

  <path d="M604 248 418 508h118l-80 274 206-308H544z" fill="#8d411d" fill-opacity="0.92"/>
  <path d="M592 266 434 506h108l-70 246 180-282H542z" fill="#fff4e4"/>
  <path d="M580 286 450 506h98l-62 216 154-248H540z" fill="#ff9b52"/>
  <path d="M366 454h56M656 426h46M640 620h54" fill="none" stroke="#ffd8b0" stroke-width="14" stroke-linecap="round" stroke-opacity="0.7"/>

  <circle cx="324" cy="456" r="16" fill="#ffe8c8" fill-opacity="0.8"/>
  <circle cx="688" cy="426" r="14" fill="#ffe8c8" fill-opacity="0.78"/>
  <circle cx="716" cy="582" r="18" fill="#ffe8c8" fill-opacity="0.82"/>
  <circle cx="308" cy="588" r="14" fill="#ffe8c8" fill-opacity="0.76"/>

</svg>
