<svg xmlns="http://www.w3.org/2000/svg" width="1024" height="1024" viewBox="0 0 1024 1024">
  <defs>
    <radialGradient id="bgGlow" cx="50%" cy="50%" r="56%">
      <stop offset="0%" stop-color="#102746"/>
      <stop offset="58%" stop-color="#0b1831"/>
      <stop offset="100%" stop-color="#070d18"/>
    </radialGradient>
    <linearGradient id="ringGrad" x1="0%" y1="0%" x2="100%" y2="100%">
      <stop offset="0%" stop-color="#9ad7ff"/>
      <stop offset="52%" stop-color="#43a9ff"/>
      <stop offset="100%" stop-color="#1e6fd2"/>
    </linearGradient>
    <radialGradient id="coreGrad" cx="50%" cy="45%" r="62%">
      <stop offset="0%" stop-color="#d9f2ff"/>
      <stop offset="44%" stop-color="#75c4ff"/>
      <stop offset="100%" stop-color="#2a75d9"/>
    </radialGradient>
  </defs>

  <circle cx="512" cy="512" r="496" fill="url(#bgGlow)"/>
  <circle cx="512" cy="512" r="470" fill="none" stroke="#e2f4ff" stroke-opacity="0.18" stroke-width="4"/>
  <circle cx="512" cy="512" r="420" fill="none" stroke="url(#ringGrad)" stroke-width="20"/>
  <circle cx="512" cy="512" r="392" fill="none" stroke="#a8ddff" stroke-opacity="0.36" stroke-width="4"/>
  <circle cx="512" cy="512" r="322" fill="none" stroke="#a8ddff" stroke-opacity="0.26" stroke-width="2.5" stroke-dasharray="8 14"/>
  <circle cx="512" cy="512" r="248" fill="none" stroke="#a8ddff" stroke-opacity="0.2" stroke-width="2" stroke-dasharray="6 13"/>

  <circle cx="512" cy="512" r="204" fill="url(#coreGrad)" fill-opacity="0.26"/>
  <circle cx="512" cy="512" r="152" fill="#0f2038" fill-opacity="0.66"/>

  <g transform="translate(512 542) scale(1.12) translate(-512 -552)">
    <ellipse cx="512" cy="552" rx="188" ry="136" fill="#0a1830" fill-opacity="0.5"/>
    <ellipse cx="512" cy="552" rx="170" ry="118" fill="#102a4b" fill-opacity="0.42"/>

    <path d="M272 394 478 486 272 526 294 462z" fill="#163b6a"/>
    <path d="M314 420 444 486 314 500 326 462z" fill="#eaf8ff"/>
    <path d="M354 438 422 468 354 478z" fill="#9fd8ff" fill-opacity="0.9"/>
    <path d="M752 394 546 486 752 526 730 462z" fill="#163b6a"/>
    <path d="M710 420 580 486 710 500 698 462z" fill="#eaf8ff"/>
    <path d="M670 438 602 468 670 478z" fill="#9fd8ff" fill-opacity="0.9"/>

    <path d="M248 612 334 528 420 612 512 520 604 612 690 528 776 612 776 734 248 734z" fill="#163b6a"/>
    <path d="M248 612 334 528 420 612 512 520 604 612 690 528 776 612 776 734 248 734z" fill="none" stroke="#0b1831" stroke-width="12" stroke-linejoin="round"/>
    <path d="M286 618 352 556 420 618 512 548 604 618 672 556 738 618 738 688 286 688z" fill="#eaf8ff"/>
    <path d="M322 670 372 620 430 670 512 606 594 670 652 620 702 670 702 706 322 706z" fill="#7dc8ff" fill-opacity="0.88"/>
    <path d="M342 684 382 642 432 684 512 624 592 684 642 642 682 684 682 698 342 698z" fill="#1a3f72" fill-opacity="0.9"/>

    <path d="M248 612v118" fill="none" stroke="#0b1831" stroke-width="14" stroke-linecap="round"/>
    <path d="M776 612v118" fill="none" stroke="#0b1831" stroke-width="14" stroke-linecap="round"/>
  </g>

</svg>
