<svg xmlns="http://www.w3.org/2000/svg" width="1024" height="1024" viewBox="0 0 1024 1024">
  <defs>
    <radialGradient id="bgGlow" cx="50%" cy="50%" r="55%">
      <stop offset="0%" stop-color="#2f0f0a"/>
      <stop offset="55%" stop-color="#190c0a"/>
      <stop offset="100%" stop-color="#08090f"/>
    </radialGradient>
    <radialGradient id="coreGlow" cx="50%" cy="50%" r="62%">
      <stop offset="0%" stop-color="#ffd7a2"/>
      <stop offset="30%" stop-color="#ffab52"/>
      <stop offset="68%" stop-color="#ff6e35"/>
      <stop offset="100%" stop-color="#8d2e1a"/>
    </radialGradient>
    <linearGradient id="ringGrad" x1="0%" y1="0%" x2="100%" y2="100%">
      <stop offset="0%" stop-color="#ffd596"/>
      <stop offset="45%" stop-color="#ff8f45"/>
      <stop offset="100%" stop-color="#c94a24"/>
    </linearGradient>
  </defs>

  <circle cx="512" cy="512" r="496" fill="url(#bgGlow)" />
  <circle cx="512" cy="512" r="470" fill="none" stroke="#f4f4f4" stroke-opacity="0.18" stroke-width="4" />
  <circle cx="512" cy="512" r="418" fill="none" stroke="url(#ringGrad)" stroke-width="20" />
  <circle cx="512" cy="512" r="390" fill="none" stroke="#ffbe6f" stroke-opacity="0.35" stroke-width="4" />
  <circle cx="512" cy="512" r="320" fill="none" stroke="#ffbe6f" stroke-opacity="0.26" stroke-width="2.5" stroke-dasharray="8 14" />
  <circle cx="512" cy="512" r="248" fill="none" stroke="#ffbe6f" stroke-opacity="0.22" stroke-width="2" stroke-dasharray="6 13" />

  <g fill="url(#coreGlow)" stroke="#ffd8a8" stroke-opacity="0.55" stroke-width="4">
    <path d="M512 274 552 408 686 366 614 486 748 530 612 558 680 678 550 628 512 760 472 628 346 684 410 558 276 524 406 484 340 362 474 408z"/>
  </g>

  <g fill="#ffd597" fill-opacity="0.8">
    <circle cx="324" cy="454" r="18"/>
    <circle cx="688" cy="422" r="14"/>
    <circle cx="714" cy="586" r="20"/>
    <circle cx="308" cy="590" r="16"/>
    <circle cx="512" cy="344" r="13"/>
    <circle cx="526" cy="696" r="15"/>
  </g>

  <circle cx="512" cy="512" r="140" fill="#fff2da" fill-opacity="0.16" />
  <circle cx="512" cy="512" r="96" fill="#fff2da" fill-opacity="0.14" />

</svg>
