<svg xmlns="http://www.w3.org/2000/svg" width="1024" height="1024" viewBox="0 0 1024 1024">
  <defs>
    <radialGradient id="bgGlow" cx="50%" cy="50%" r="56%">
      <stop offset="0%" stop-color="#3b1f12"/>
      <stop offset="58%" stop-color="#24140d"/>
      <stop offset="100%" stop-color="#140d0a"/>
    </radialGradient>
    <linearGradient id="ringGrad" x1="0%" y1="0%" x2="100%" y2="100%">
      <stop offset="0%" stop-color="#ffd6a4"/>
      <stop offset="52%" stop-color="#ff9b52"/>
      <stop offset="100%" stop-color="#d15c26"/>
    </linearGradient>
    <radialGradient id="coreGrad" cx="50%" cy="45%" r="62%">
      <stop offset="0%" stop-color="#ffe5c7"/>
      <stop offset="44%" stop-color="#ffb46a"/>
      <stop offset="100%" stop-color="#cc5b2d"/>
    </radialGradient>
  </defs>

  <circle cx="512" cy="512" r="496" fill="url(#bgGlow)"/>
  <circle cx="512" cy="512" r="470" fill="none" stroke="#ffe9cc" stroke-opacity="0.18" stroke-width="4"/>
  <circle cx="512" cy="512" r="420" fill="none" stroke="url(#ringGrad)" stroke-width="20"/>
  <circle cx="512" cy="512" r="392" fill="none" stroke="#ffd4a8" stroke-opacity="0.34" stroke-width="4"/>
  <circle cx="512" cy="512" r="322" fill="none" stroke="#ffd4a8" stroke-opacity="0.24" stroke-width="2.5" stroke-dasharray="8 14"/>
  <circle cx="512" cy="512" r="248" fill="none" stroke="#ffd4a8" stroke-opacity="0.2" stroke-width="2" stroke-dasharray="6 13"/>

  <circle cx="512" cy="512" r="196" fill="url(#coreGrad)" fill-opacity="0.26"/>
  <circle cx="512" cy="512" r="132" fill="#ffe9cc" fill-opacity="0.08"/>

  <g fill="none" stroke-linecap="round" stroke-linejoin="round">
    <circle cx="512" cy="512" r="204" stroke="#fff4e4" stroke-opacity="0.75" stroke-width="14"/>
    <circle cx="512" cy="512" r="204" stroke="#ff9b52" stroke-width="9"/>
    <circle cx="512" cy="512" r="94" stroke="#fff4e4" stroke-opacity="0.72" stroke-width="10"/>
    <circle cx="512" cy="512" r="94" stroke="#ff9b52" stroke-width="6"/>

    <path d="M512 266V420 M512 604V758 M266 512H420 M604 512H758" stroke="#fff4e4" stroke-opacity="0.8" stroke-width="20"/>
    <path d="M512 266V420 M512 604V758 M266 512H420 M604 512H758" stroke="#ff9b52" stroke-width="12"/>

    <path d="M512 236V288 M512 736V788 M236 512H288 M736 512H788" stroke="#ffd4a8" stroke-width="8"/>
    <path d="M376 376 412 412 M612 612 648 648 M648 376 612 412 M412 612 376 648" stroke="#ffd4a8" stroke-opacity="0.62" stroke-width="6"/>
  </g>

  <circle cx="512" cy="512" r="22" fill="#fff4e4" fill-opacity="0.92"/>
  <circle cx="512" cy="512" r="12" fill="#ff9b52"/>
</svg>
