<svg xmlns="http://www.w3.org/2000/svg" width="1024" height="1024" viewBox="0 0 1024 1024">
  <defs>
    <radialGradient id="bgGlow" cx="50%" cy="50%" r="56%">
      <stop offset="0%" stop-color="#3b1f12"/>
      <stop offset="58%" stop-color="#24140d"/>
      <stop offset="100%" stop-color="#140d0a"/>
    </radialGradient>
    <linearGradient id="ringGrad" x1="0%" y1="0%" x2="100%" y2="100%">
      <stop offset="0%" stop-color="#ffd6a4"/>
      <stop offset="52%" stop-color="#ff9b52"/>
      <stop offset="100%" stop-color="#d15c26"/>
    </linearGradient>
    <radialGradient id="coreGrad" cx="50%" cy="45%" r="62%">
      <stop offset="0%" stop-color="#ffe5c7"/>
      <stop offset="44%" stop-color="#ffb46a"/>
      <stop offset="100%" stop-color="#cc5b2d"/>
    </radialGradient>
  </defs>

  <circle cx="512" cy="512" r="496" fill="url(#bgGlow)"/>
  <circle cx="512" cy="512" r="470" fill="none" stroke="#ffe9cc" stroke-opacity="0.18" stroke-width="4"/>
  <circle cx="512" cy="512" r="420" fill="none" stroke="url(#ringGrad)" stroke-width="20"/>
  <circle cx="512" cy="512" r="392" fill="none" stroke="#ffd4a8" stroke-opacity="0.36" stroke-width="4"/>
  <circle cx="512" cy="512" r="322" fill="none" stroke="#ffd4a8" stroke-opacity="0.26" stroke-width="2.5" stroke-dasharray="8 14"/>
  <circle cx="512" cy="512" r="248" fill="none" stroke="#ffd4a8" stroke-opacity="0.2" stroke-width="2" stroke-dasharray="6 13"/>

  <circle cx="512" cy="512" r="196" fill="url(#coreGrad)" fill-opacity="0.26"/>
  <circle cx="512" cy="512" r="132" fill="#ffe9cc" fill-opacity="0.08"/>

  <circle cx="512" cy="512" r="204" fill="#2a170f" fill-opacity="0.62"/>
  <circle cx="512" cy="512" r="204" fill="none" stroke="#fff4e4" stroke-opacity="0.75" stroke-width="14"/>
  <circle cx="512" cy="512" r="204" fill="none" stroke="#ff9b52" stroke-width="9"/>

  <g fill="none" stroke-linecap="round">
    <path d="M512 286V656" stroke="#8d411d" stroke-width="150"/>
    <path d="M512 310V638" stroke="#fff4e4" stroke-width="102"/>
    <path d="M512 312V638" stroke="#ff9b52" stroke-width="36"/>
  </g>

  <circle cx="512" cy="776" r="78" fill="#8d411d"/>
  <circle cx="512" cy="776" r="54" fill="#fff4e4"/>
  <circle cx="512" cy="776" r="24" fill="#ff9b52"/>
</svg>
