<svg xmlns="http://www.w3.org/2000/svg" width="1024" height="1024" viewBox="0 0 1024 1024">
  <defs>
    <radialGradient id="bgGlow" cx="50%" cy="50%" r="56%">
      <stop offset="0%" stop-color="#17331c"/>
      <stop offset="58%" stop-color="#102414"/>
      <stop offset="100%" stop-color="#09130b"/>
    </radialGradient>
    <linearGradient id="ringGrad" x1="0%" y1="0%" x2="100%" y2="100%">
      <stop offset="0%" stop-color="#bcff9b"/>
      <stop offset="52%" stop-color="#63d76a"/>
      <stop offset="100%" stop-color="#2ea24c"/>
    </linearGradient>
    <radialGradient id="coreGrad" cx="50%" cy="45%" r="62%">
      <stop offset="0%" stop-color="#f1ffe6"/>
      <stop offset="44%" stop-color="#9ef08d"/>
      <stop offset="100%" stop-color="#49b865"/>
    </radialGradient>
  </defs>

  <circle cx="512" cy="512" r="496" fill="url(#bgGlow)"/>
  <circle cx="512" cy="512" r="470" fill="none" stroke="#efffe7" stroke-opacity="0.16" stroke-width="4"/>
  <circle cx="512" cy="512" r="420" fill="none" stroke="url(#ringGrad)" stroke-width="20"/>
  <circle cx="512" cy="512" r="392" fill="none" stroke="#d9ffd0" stroke-opacity="0.32" stroke-width="4"/>
  <circle cx="512" cy="512" r="322" fill="none" stroke="#c8ffbe" stroke-opacity="0.24" stroke-width="2.5" stroke-dasharray="8 14"/>
  <circle cx="512" cy="512" r="248" fill="none" stroke="#c8ffbe" stroke-opacity="0.16" stroke-width="2" stroke-dasharray="6 13"/>

  <circle cx="512" cy="512" r="204" fill="#102316" fill-opacity="0.62"/>
  <circle cx="512" cy="512" r="204" fill="none" stroke="#f4ffef" stroke-opacity="0.72" stroke-width="14"/>
  <circle cx="512" cy="512" r="204" fill="none" stroke="#67dd72" stroke-width="9"/>
  <circle cx="512" cy="512" r="196" fill="url(#coreGrad)" fill-opacity="0.22"/>

  <g transform="translate(0 4)">
    <rect x="304" y="304" width="416" height="416" rx="72" fill="#18341f"/>
    <rect x="304" y="304" width="416" height="416" rx="72" fill="none" stroke="#efffe7" stroke-width="24"/>
    <rect x="332" y="332" width="360" height="360" rx="54" fill="#69db70"/>
    <rect x="366" y="366" width="292" height="292" rx="38" fill="#f4ffef"/>
    <rect x="392" y="392" width="240" height="240" rx="28" fill="#8ce887"/>

    <circle cx="452" cy="452" r="26" fill="#17341c"/>
    <circle cx="572" cy="452" r="26" fill="#17341c"/>
    <circle cx="512" cy="512" r="26" fill="#17341c"/>
    <circle cx="452" cy="572" r="26" fill="#17341c"/>
    <circle cx="572" cy="572" r="26" fill="#17341c"/>
  </g>
</svg>
