<svg xmlns="http://www.w3.org/2000/svg" width="1024" height="1024" viewBox="0 0 1024 1024">
  <defs>
    <radialGradient id="bgGlow" cx="50%" cy="50%" r="56%">
      <stop offset="0%" stop-color="#3f2d10"/>
      <stop offset="58%" stop-color="#281c0b"/>
      <stop offset="100%" stop-color="#141008"/>
    </radialGradient>
    <linearGradient id="ringGrad" x1="0%" y1="0%" x2="100%" y2="100%">
      <stop offset="0%" stop-color="#fff1a8"/>
      <stop offset="52%" stop-color="#d9aa3d"/>
      <stop offset="100%" stop-color="#8d6118"/>
    </linearGradient>
    <linearGradient id="diceGrad" x1="24%" y1="10%" x2="82%" y2="92%">
      <stop offset="0%" stop-color="#fff9df"/>
      <stop offset="48%" stop-color="#f0c85a"/>
      <stop offset="100%" stop-color="#9b6519"/>
    </linearGradient>
  </defs>

  <circle cx="512" cy="512" r="496" fill="url(#bgGlow)"/>
  <circle cx="512" cy="512" r="470" fill="none" stroke="#fff6d2" stroke-opacity="0.18" stroke-width="4"/>
  <circle cx="512" cy="512" r="420" fill="none" stroke="url(#ringGrad)" stroke-width="20"/>
  <circle cx="512" cy="512" r="392" fill="none" stroke="#f7dc85" stroke-opacity="0.36" stroke-width="4"/>
  <circle cx="512" cy="512" r="260" fill="#2c210f" fill-opacity="0.64"/>
  <circle cx="512" cy="512" r="260" fill="none" stroke="#fff6d2" stroke-opacity="0.72" stroke-width="14"/>
  <circle cx="512" cy="512" r="260" fill="none" stroke="#d9aa3d" stroke-width="9"/>

  <circle cx="512" cy="512" r="184" fill="#fff6d2" fill-opacity="0.08"/>

  <g transform="rotate(-12 432 460)" stroke="#2c210f" stroke-linejoin="round">
    <rect x="318" y="346" width="228" height="228" rx="36" fill="url(#diceGrad)" stroke-width="18"/>
    <g fill="#2c210f" stroke="none">
      <circle cx="378" cy="406" r="24"/>
      <circle cx="486" cy="406" r="24"/>
      <circle cx="432" cy="460" r="24"/>
      <circle cx="378" cy="514" r="24"/>
      <circle cx="486" cy="514" r="24"/>
    </g>
  </g>

  <g transform="rotate(12 594 564)" stroke="#2c210f" stroke-linejoin="round">
    <rect x="480" y="450" width="228" height="228" rx="36" fill="url(#diceGrad)" stroke-width="18"/>
    <g fill="#2c210f" stroke="none">
      <circle cx="540" cy="510" r="24"/>
      <circle cx="648" cy="510" r="24"/>
      <circle cx="540" cy="564" r="24"/>
      <circle cx="648" cy="564" r="24"/>
      <circle cx="540" cy="618" r="24"/>
      <circle cx="648" cy="618" r="24"/>
    </g>
  </g>
</svg>
