<svg xmlns="http://www.w3.org/2000/svg" viewBox="0 0 512 512" role="img" aria-labelledby="title desc">
  <title id="title">Emblema de Alianza</title>
  <desc id="desc">Escudo angular con estrella central, inspirado en una coalicion militar de alta tecnologia.</desc>
  <defs>
    <linearGradient id="alliance-core" x1="0" y1="0" x2="1" y2="1">
      <stop offset="0%" stop-color="#ff8f45"/>
      <stop offset="100%" stop-color="#d96a21"/>
    </linearGradient>
  </defs>
  <g fill="none" stroke-linecap="round" stroke-linejoin="round">
    <path d="M256 36 412 108v128c0 126-79 204-156 240-77-36-156-114-156-240V108Z" stroke="#a7b0c0" stroke-width="20"/>
    <path d="M256 80 370 132v98c0 92-54 151-114 182-60-31-114-90-114-182v-98Z" stroke="#ff8f45" stroke-width="12" opacity=".8"/>
    <path d="M256 166 278 218l56 5-42 36 13 56-49-30-49 30 13-56-42-36 56-5Z" fill="url(#alliance-core)" stroke="#ffcf9a" stroke-width="8"/>
    <path d="M122 208h64M326 208h64M148 282h56M308 282h56" stroke="#a7b0c0" stroke-width="14" opacity=".75"/>
  </g>
</svg>
